<svg width="18" height="16" viewBox="0 0 18 16" fill="none" xmlns="http://www.w3.org/2000/svg">
<path fill-rule="evenodd" clip-rule="evenodd" d="M9 0.800003C6.102 0.800003 2.3406 1.52935 2.3406 1.52935L2.33113 1.54022C1.01123 1.75225 0 2.89148 0 4.27697V11.7217C0.00266071 13.0899 0.993669 14.2523 2.33789 14.4652L2.3406 14.4693C2.3406 14.4693 6.102 15.2 9 15.2C11.898 15.2 15.6594 14.4693 15.6594 14.4693C17.0065 14.2555 17.9986 13.0914 18 11.723V4.27697C17.998 2.90956 17.0068 1.74641 15.6621 1.53343C15.6594 1.52935 11.898 0.800003 9 0.800003ZM7.2 4.85L12.6 8L7.2 11.15V4.85Z" fill="white"/>
</svg>
